<?xml version="1.0" encoding="UTF-8" standalone="no"?>
<svg
   xmlns="http://www.w3.org/2000/svg"
   version="1.1"
   width="500.71085"
   height="241.87854"
   id="svg3271">
  <defs
     id="defs3273" />
  <g
     transform="translate(-99.64458,-411.42287)"
     id="layer1">
    <path
       d="m 536.7637,433.70589 c 0.004,0.23659 -0.004,0.47322 -0.0194,0.71752 -0.0194,0.24434 -0.0659,0.4926 -0.14738,0.74067 -0.25986,0.93483 -0.60504,1.5553 -1.02396,1.86162 -0.42655,0.3064 -0.84154,0.44622 -1.2527,0.42276 -0.78345,0.008 -1.44271,-0.47321 -1.97418,-1.4388 -0.53523,-0.96961 -0.81052,-2.47446 -0.83383,-4.51856 0.004,-1.80333 0.24434,-3.24996 0.7214,-4.34384 0.47712,-1.09365 1.17118,-1.65211 2.08661,-1.6831 0.71348,0.0349 1.24894,0.3064 1.60177,0.81052 0.35294,0.508 0.58956,1.04323 0.70983,1.60568 0.0504,0.18229 0.0815,0.37234 0.10472,0.57006 0.0194,0.20168 0.0272,0.40739 0.0272,0.62067 l 0,4.6348 z m 2.53636,-5.16223 c 0.004,-1.22575 0.0233,-2.23419 0.0543,-3.01749 0.031,-0.78732 0.0582,-1.44282 0.0815,-1.97026 l -2.2767,0 -0.13187,1.77638 -0.0659,0 c -0.23659,-0.48884 -0.58177,-0.94262 -1.04327,-1.36518 -0.45378,-0.42279 -1.09768,-0.6517 -1.9276,-0.67893 -0.81067,-0.004 -1.59788,0.27576 -2.35814,0.84582 -0.76022,0.56978 -1.38849,1.46579 -1.8849,2.69534 -0.49652,1.22551 -0.75633,2.82336 -0.77573,4.79386 0.0194,2.38521 0.44599,4.28942 1.27997,5.71282 0.83383,1.42344 1.97022,2.15255 3.40914,2.18757 0.67101,-0.004 1.27593,-0.17065 1.81508,-0.50044 0.53914,-0.33355 0.9463,-0.81432 1.22171,-1.44283 l 0.0659,0 0,1.61352 c -0.008,1.78014 -0.30252,3.04068 -0.87669,3.78162 -0.58177,0.74071 -1.37666,1.09745 -2.39282,1.07426 -0.63238,-0.008 -1.20228,-0.0814 -1.70652,-0.22107 -0.50033,-0.13963 -0.9154,-0.29477 -1.23343,-0.46918 l -0.58945,1.97402 c 0.41887,0.23659 0.93471,0.42659 1.54747,0.57006 0.61264,0.14389 1.26054,0.21719 1.95094,0.22146 0.89197,-0.004 1.70261,-0.15165 2.42381,-0.44622 0.72151,-0.2905 1.33439,-0.70188 1.83079,-1.23331 0.52743,-0.54683 0.923,-1.32636 1.18681,-2.34259 0.26761,-1.01981 0.39545,-2.54812 0.39545,-4.58819 l 0,-8.97085 z m -18.67849,10.97993 2.53652,0 0,-8.84682 c 0,-0.27537 0.008,-0.53522 0.0272,-0.77573 0.0155,-0.23658 0.0388,-0.46161 0.0737,-0.67489 0.1435,-0.94619 0.48481,-1.73352 1.02771,-2.35799 0.53915,-0.62827 1.22172,-0.95022 2.04008,-0.97365 0.19392,-0.008 0.36845,0.004 0.52754,0.031 l 0,-2.6023 c -0.15901,-0.0271 -0.33354,-0.0388 -0.52754,-0.0349 -0.75646,0.0233 -1.435,0.29515 -2.04008,0.81835 -0.60492,0.52364 -1.04334,1.1713 -1.32635,1.95083 l -0.0621,0 -0.13575,-2.50145 -2.27301,0 c 0.0194,0.60508 0.0465,1.26814 0.0776,1.99749 0.031,0.72507 0.0504,1.43099 0.0543,2.12152 l 0,11.84867 z m -34.38266,-5.8177 c 0.004,0.23659 -0.004,0.47322 -0.0194,0.71752 -0.0194,0.24434 -0.0698,0.4926 -0.14738,0.74067 -0.25985,0.93483 -0.60112,1.5553 -1.02771,1.86162 -0.42279,0.3064 -0.83775,0.44622 -1.24895,0.42276 -0.78345,0.008 -1.44271,-0.47321 -1.97425,-1.4388 -0.535,-0.96961 -0.81448,-2.47446 -0.83375,-4.51856 0.004,-1.80333 0.24046,-3.24996 0.72139,-4.34384 0.48105,-1.09365 1.17521,-1.65211 2.08661,-1.6831 0.71372,0.0349 1.24895,0.3064 1.60189,0.81052 0.35294,0.508 0.58945,1.04323 0.70972,1.60568 0.0504,0.18229 0.0853,0.37234 0.10084,0.57006 0.0233,0.20168 0.031,0.40739 0.031,0.62067 l 0,4.6348 z m 2.53663,-5.16223 c 0.004,-1.22575 0.0233,-2.23419 0.0543,-3.01749 0.0349,-0.78732 0.0582,-1.44282 0.0776,-1.97026 l -2.27278,0 -0.13187,1.77638 -0.0663,0 c -0.2362,-0.48884 -0.58177,-0.94262 -1.03924,-1.36518 -0.4577,-0.42279 -1.10144,-0.6517 -1.93151,-0.67893 -0.81444,-0.004 -1.59789,0.27576 -2.35811,0.84582 -0.76406,0.56978 -1.39229,1.46579 -1.88881,2.69534 -0.49253,1.22551 -0.75242,2.82336 -0.76794,4.79386 0.0155,2.38521 0.44219,4.28942 1.27594,5.71282 0.83395,1.42344 1.97034,2.15255 3.40929,2.18757 0.67097,-0.004 1.27605,-0.17065 1.81504,-0.50044 0.53915,-0.33355 0.94642,-0.81432 1.22176,-1.44283 l 0.0659,0 0,1.61352 c -0.0116,1.78014 -0.30252,3.04068 -0.88037,3.78162 -0.57405,0.74071 -1.37298,1.09745 -2.3891,1.07426 -0.63219,-0.008 -1.20232,-0.0814 -1.70656,-0.22107 -0.5042,-0.13963 -0.9154,-0.29477 -1.2294,-0.46918 l -0.59736,1.97402 c 0.42275,0.23659 0.94251,0.42659 1.55135,0.57006 0.61287,0.14389 1.26042,0.21719 1.94703,0.22146 0.89588,-0.004 1.70656,-0.15165 2.43187,-0.44622 0.71752,-0.2905 1.33028,-0.70188 1.83056,-1.23331 0.52743,-0.54683 0.9192,-1.32636 1.18293,-2.34259 0.26374,-1.01981 0.39568,-2.54812 0.39568,-4.58819 l 0,-8.97085 z m 6.57012,1.34579 c 0.031,-0.74071 0.15126,-1.46602 0.35294,-2.16814 0.20556,-0.70189 0.4926,-1.27974 0.86497,-1.74136 0.37621,-0.45758 0.84155,-0.69808 1.39218,-0.71371 0.63618,-0.008 1.18692,0.3607 1.66014,1.10928 0.46929,0.74854 0.70979,1.91984 0.71751,3.51393 l -4.98763,0 z m 7.36125,1.87721 c 0.0155,-0.19392 0.031,-0.40739 0.0427,-0.63607 0.0155,-0.2327 0.0194,-0.50043 0.0233,-0.81056 0.004,-1.22171 -0.15126,-2.36202 -0.46146,-3.42487 -0.31028,-1.05863 -0.80284,-1.91984 -1.47386,-2.58291 -0.67109,-0.65949 -1.54366,-1.0006 -2.61792,-1.02407 -1.62508,0.0272 -2.92056,0.78357 -3.89018,2.26522 -0.96961,1.48142 -1.46602,3.53309 -1.48933,6.14721 0.004,2.49009 0.49261,4.44092 1.46222,5.85652 0.97353,1.4156 2.41233,2.13711 4.31677,2.16411 0.65158,0 1.28765,-0.0659 1.91201,-0.19393 0.62055,-0.12799 1.1597,-0.31415 1.6134,-0.56241 l -0.42678,-1.846 c -0.31416,0.17066 -0.69405,0.31028 -1.13236,0.41876 -0.44206,0.11248 -0.94239,0.17104 -1.50484,0.17453 -0.62071,0.0194 -1.21392,-0.13187 -1.78018,-0.44598 -0.56621,-0.31804 -1.03551,-0.9076 -1.40032,-1.76835 -0.36845,-0.86497 -0.56614,-2.10612 -0.58933,-3.7312 l 7.39619,0 z m 8.64901,6.01158 c -0.75242,-0.0272 -1.32647,-0.37233 -1.72204,-1.03167 -0.39948,-0.65926 -0.67101,-1.46222 -0.81444,-2.4162 -0.14738,-0.95046 -0.21331,-1.88125 -0.20556,-2.79262 -0.008,-0.85314 0.0582,-1.76074 0.19393,-2.71496 0.13962,-0.95802 0.40728,-1.77637 0.79908,-2.45507 0.39164,-0.68245 0.9657,-1.03543 1.7142,-1.07022 0.74463,0.0349 1.30708,0.38785 1.70265,1.07022 0.39176,0.6787 0.66318,1.49705 0.80676,2.45507 0.13962,0.95422 0.20943,1.86182 0.20168,2.71496 0.008,0.86878 -0.0586,1.78014 -0.20168,2.73436 -0.14351,0.95426 -0.4034,1.76881 -0.78749,2.44727 -0.38396,0.67489 -0.93455,1.02807 -1.65598,1.05886 l -0.031,0 z m -0.0659,2.00905 c 0.83383,0.0155 1.65218,-0.24435 2.45503,-0.76794 0.80284,-0.52363 1.46982,-1.39241 1.99748,-2.60629 0.53131,-1.21392 0.80665,-2.85063 0.82604,-4.90633 -0.0349,-2.78482 -0.53131,-4.85185 -1.49705,-6.20167 -0.9619,-1.34978 -2.17974,-2.02064 -3.64964,-2.01688 -1.42343,-0.0194 -2.65287,0.63231 -3.70009,1.95083 -1.04715,1.3188 -1.59401,3.43271 -1.64443,6.33377 0.0349,2.79618 0.53903,4.86724 1.51256,6.21326 0.96962,1.34199 2.19514,2.00908 3.66519,2.00125 l 0.0349,0 z m -75.84729,-0.2637 2.53648,0 0,-10.06473 c 0,-0.28274 0.0116,-0.54283 0.031,-0.78333 0.0194,-0.24047 0.0543,-0.45378 0.10084,-0.63607 0.16677,-0.86122 0.46549,-1.50888 0.90771,-1.94703 0.43827,-0.43819 0.9308,-0.6593 1.47382,-0.6593 0.90368,0.0349 1.50093,0.43035 1.79957,1.1789 0.29864,0.74873 0.43427,1.61751 0.41496,2.61412 l 0,10.29744 2.53663,0 0,-10.72403 c -0.0233,-1.93543 -0.3918,-3.33944 -1.1016,-4.21578 -0.70968,-0.87657 -1.62888,-1.30719 -2.75759,-1.2956 -0.84547,0.0116 -1.58237,0.21332 -2.20685,0.60912 -0.62043,0.39176 -1.10916,0.91516 -1.45822,1.56686 l -0.0659,0 -0.13187,-1.90825 -2.21065,0 c 0.0194,0.61265 0.0465,1.22552 0.0776,1.8344 0.0349,0.60907 0.0504,1.36918 0.0543,2.28461 l 0,11.84867 z m 17.11175,-22.8364 -2.53663,0 0,22.8364 2.53663,0 0,-6.03881 0.92699,-1.48541 3.46727,7.52422 2.83524,0 -4.61929,-9.23858 4.22361,-6.7291 -2.73828,0 -3.16855,5.63921 c -0.14738,0.26762 -0.29088,0.55086 -0.43047,0.85342 -0.13962,0.3064 -0.27925,0.6126 -0.43062,0.93079 l -0.0659,0 0,-14.29214 z m 11.00712,4.16159 0,2.70713 -1.95083,0 0,1.90825 1.95083,0 0,9.27717 c -0.004,1.08985 0.0737,1.94703 0.22883,2.5715 0.15514,0.62044 0.39557,1.10928 0.72531,1.45442 0.29864,0.34131 0.66318,0.58945 1.08989,0.73691 0.43035,0.14738 0.90357,0.22107 1.4156,0.21719 0.41092,0 0.76794,-0.0233 1.07814,-0.0698 0.3064,-0.0465 0.57393,-0.10859 0.80284,-0.19392 l -0.13187,-1.94303 c -0.25986,0.0659 -0.60128,0.10084 -1.02004,0.10084 -0.47321,0.0194 -0.86489,-0.15514 -1.17509,-0.53143 -0.3064,-0.37233 -0.46553,-1.07829 -0.47713,-2.10992 l 0,-9.50984 3.06794,0 0,-1.90825 -3.06794,0 0,-3.7312 -2.53648,1.02407 z m -35.41042,13.62881 c 0,0.14738 -0.008,0.30252 -0.0272,0.46162 -0.0155,0.15901 -0.0388,0.31027 -0.0737,0.46161 -0.15901,0.79516 -0.44598,1.39218 -0.86486,1.79957 -0.41495,0.40716 -0.9076,0.60884 -1.48165,0.61264 -0.46941,0.0116 -0.90748,-0.1978 -1.30692,-0.62827 -0.40352,-0.43035 -0.6168,-1.1713 -0.63999,-2.21453 0.0272,-1.1365 0.31028,-1.97026 0.84547,-2.50548 0.53131,-0.535 1.14027,-0.88038 1.81896,-1.02784 0.68269,-0.15126 1.2565,-0.21331 1.72983,-0.1978 l 0,3.23837 z m 2.47058,-5.51137 c 0.0116,-1.79554 -0.34906,-3.18795 -1.07817,-4.17695 -0.72531,-0.98525 -1.88501,-1.48546 -3.47507,-1.50109 -0.80676,0.0155 -1.53978,0.12799 -2.19916,0.3417 -0.66318,0.21719 -1.1713,0.45354 -1.53196,0.71348 l 0.56234,1.78014 c 0.38009,-0.26374 0.78733,-0.46918 1.23331,-0.60885 0.43831,-0.1435 0.91152,-0.21331 1.40793,-0.21719 0.98513,0.0194 1.66393,0.35682 2.02455,1.01197 0.36458,0.65953 0.53903,1.53207 0.51976,2.62196 l 0,0.4964 c -1.22187,0.008 -2.33872,0.2172 -3.36267,0.62447 -1.02772,0.4112 -1.85402,1.04323 -2.47458,1.89262 -0.62435,0.85338 -0.94619,1.95106 -0.9617,3.29281 0.0233,1.40021 0.38397,2.50545 1.08977,3.31625 0.70592,0.80676 1.60568,1.21768 2.69945,1.23331 0.68261,-0.004 1.29537,-0.17453 1.83451,-0.51204 0.53911,-0.3413 0.98509,-0.81432 1.33807,-1.43123 l 0.10084,0 0.1629,1.67957 2.27278,0 c -0.0776,-0.51983 -0.12411,-1.10148 -0.1435,-1.73755 -0.0155,-0.63607 -0.0233,-1.26837 -0.0194,-1.88881 l 0,-6.93101 z m -34.77811,-8.11744 0,2.70713 -1.94315,0 0,1.90825 1.94315,0 0,9.27717 c 0,1.08985 0.0776,1.94703 0.23271,2.5715 0.15514,0.62044 0.39948,1.10928 0.72523,1.45442 0.30252,0.34131 0.66318,0.58945 1.09377,0.73691 0.42655,0.14738 0.89588,0.22107 1.41168,0.21719 0.4112,0 0.77185,-0.0233 1.07829,-0.0698 0.3064,-0.0465 0.57394,-0.10859 0.80273,-0.19392 l -0.13187,-1.94304 c -0.25598,0.0659 -0.59736,0.10085 -1.02395,0.10085 -0.47333,0.0194 -0.86118,-0.15514 -1.17142,-0.53143 -0.30639,-0.37233 -0.46917,-1.07829 -0.47685,-2.10993 l 0,-9.50984 3.0717,0 0,-1.90824 -3.0717,0 0,-3.7312 -2.5404,1.02407 z m 14.52861,17.95326 c 0.3607,0.27925 0.82615,0.50424 1.39241,0.6671 0.56622,0.16677 1.14799,0.24822 1.74143,0.2521 1.3575,0.004 2.48997,-0.38785 3.39757,-1.1713 0.9114,-0.78733 1.38458,-1.97782 1.41952,-3.57594 -0.0233,-1.09745 -0.34169,-2.04008 -0.9541,-2.8274 -0.61668,-0.78733 -1.40013,-1.47386 -2.34263,-2.05951 -0.77573,-0.51176 -1.30704,-0.96961 -1.58629,-1.37274 -0.28313,-0.3996 -0.41496,-0.85718 -0.39945,-1.36922 0,-0.54682 0.17453,-1.02003 0.5158,-1.41959 0.34906,-0.39937 0.85706,-0.60485 1.53587,-0.62804 0.42279,0.004 0.81064,0.0737 1.1597,0.20556 0.34519,0.12799 0.67478,0.30252 0.98513,0.5234 l 0.65926,-1.91201 c -0.32967,-0.22107 -0.72923,-0.41499 -1.1984,-0.57405 -0.46538,-0.15902 -1.01612,-0.24434 -1.64059,-0.2521 -1.26446,0.0233 -2.30769,0.43439 -3.12217,1.23358 -0.81843,0.79893 -1.23723,1.86159 -1.26822,3.18795 0.004,0.89976 0.27925,1.71432 0.82224,2.45126 0.54294,0.73288 1.33811,1.435 2.37742,2.10589 0.79516,0.51603 1.33807,1.01624 1.63279,1.50485 0.29477,0.4888 0.43451,1.03163 0.41899,1.62911 -0.0116,0.71751 -0.22495,1.27974 -0.64386,1.69089 -0.415,0.40716 -0.98121,0.61288 -1.70265,0.62048 -0.51971,-0.0116 -1.00844,-0.10472 -1.46222,-0.27498 -0.45001,-0.17453 -0.82215,-0.35682 -1.11308,-0.55082 l -0.62447,1.91576 z m -20.90876,0.72155 0,-14.05943 2.90113,0 0,-1.90825 -2.90113,0 0,-1.02403 c -0.0233,-1.06646 0.12411,-1.98566 0.43815,-2.76918 0.31415,-0.77954 0.91931,-1.19073 1.8036,-1.22932 0.32967,0.004 0.60508,0.031 0.83375,0.0814 0.22883,0.0543 0.42291,0.11247 0.58577,0.18229 l 0.39556,-1.97426 c -0.22883,-0.12023 -0.51191,-0.21293 -0.84155,-0.28701 -0.32966,-0.0737 -0.70983,-0.10859 -1.1403,-0.11247 -0.5042,-0.008 -1.05103,0.0892 -1.6212,0.29476 -0.57781,0.20168 -1.10156,0.55466 -1.57857,1.05886 -0.56234,0.65147 -0.94239,1.39621 -1.1402,2.22992 -0.19392,0.83399 -0.287,1.68714 -0.27537,2.55615 l 0,0.9928 -2.01284,0 0,1.90825 2.01284,0 0,14.05943 2.5404,0 z m -10.36326,-5.046 c 0,0.14738 -0.008,0.30252 -0.0272,0.46162 -0.0155,0.15901 -0.0388,0.31027 -0.0698,0.46161 -0.15902,0.79516 -0.44587,1.39218 -0.86478,1.79957 -0.41888,0.40716 -0.91148,0.60884 -1.48161,0.61264 -0.4731,0.0116 -0.91152,-0.1978 -1.31089,-0.62827 -0.40336,-0.43035 -0.61663,-1.1713 -0.63994,-2.21453 0.031,-1.1365 0.31415,-1.97026 0.84531,-2.50548 0.53534,-0.535 1.14042,-0.88038 1.82288,-1.02784 0.67892,-0.15126 1.25677,-0.21331 1.72607,-0.1978 l 0,3.23837 z m 2.47054,-5.51137 c 0.0116,-1.79554 -0.34906,-3.18795 -1.07421,-4.17695 -0.72923,-0.98525 -1.88882,-1.48546 -3.47903,-1.50109 -0.80683,0.0155 -1.53594,0.12799 -2.19912,0.3417 -0.6593,0.21719 -1.17134,0.45354 -1.52808,0.71348 l 0.55846,1.78014 c 0.38009,-0.26374 0.79125,-0.46918 1.23331,-0.60885 0.44219,-0.1435 0.91152,-0.21331 1.4118,-0.21719 0.98513,0.0194 1.66003,0.35682 2.0246,1.01197 0.3607,0.65953 0.53523,1.53207 0.5158,2.62196 l 0,0.4964 c -1.2178,0.008 -2.33868,0.2172 -3.36263,0.62447 -1.02395,0.4112 -1.84999,1.04323 -2.47446,1.89262 -0.62447,0.85338 -0.94631,1.95106 -0.96182,3.29281 0.0233,1.40021 0.38784,2.50545 1.08977,3.31625 0.70588,0.80676 1.60557,1.21768 2.70337,1.23331 0.67869,-0.004 1.29156,-0.17453 1.83447,-0.51204 0.53915,-0.3413 0.98513,-0.81432 1.33404,-1.43123 l 0.10084,0 0.16289,1.67957 2.27666,0 c -0.0815,-0.51983 -0.12799,-1.10148 -0.1435,-1.73755 -0.0194,-0.63607 -0.0233,-1.26837 -0.0233,-1.88881 l 0,-6.93101 z m -54.45352,10.55737 2.53648,0 0,-8.84682 c 0,-0.27537 0.008,-0.53522 0.0233,-0.77573 0.0194,-0.23658 0.0427,-0.46161 0.0776,-0.67489 0.13962,-0.94619 0.4848,-1.73352 1.02395,-2.35799 0.54291,-0.62827 1.22552,-0.95022 2.04383,-0.97365 0.19393,-0.008 0.36846,0.004 0.52755,0.031 l 0,-2.6023 c -0.15901,-0.0271 -0.33354,-0.0388 -0.52755,-0.0349 -0.7563,0.0233 -1.43499,0.29515 -2.04383,0.81835 -0.60128,0.52364 -1.04338,1.1713 -1.3226,1.95083 l -0.0659,0 -0.13187,-2.50145 -2.27278,0 c 0.0194,0.60508 0.0465,1.26814 0.0776,1.99749 0.0349,0.72507 0.0504,1.43099 0.0543,2.12152 l 0,11.84867 z m 8.38516,-0.72155 c 0.3607,0.27925 0.82228,0.50424 1.39241,0.6671 0.56626,0.16677 1.14411,0.24822 1.73755,0.2521 1.3575,0.004 2.49389,-0.38785 3.40134,-1.1713 0.91151,-0.78733 1.38461,-1.97782 1.41952,-3.57594 -0.0233,-1.09745 -0.34131,-2.04008 -0.95791,-2.8274 -0.61663,-0.78733 -1.39628,-1.47386 -2.34259,-2.05951 -0.77573,-0.51176 -1.30316,-0.96961 -1.58629,-1.37274 -0.27925,-0.3996 -0.4112,-0.85718 -0.39568,-1.36922 0,-0.54682 0.17453,-1.02003 0.51583,-1.41959 0.34519,-0.39937 0.85326,-0.60485 1.53196,-0.62804 0.42655,0.004 0.81444,0.0737 1.1597,0.20556 0.34906,0.12799 0.67881,0.30252 0.98524,0.5234 l 0.65926,-1.91201 c -0.32579,-0.22107 -0.72531,-0.41499 -1.19448,-0.57405 -0.46554,-0.15902 -1.01628,-0.24434 -1.64063,-0.2521 -1.26822,0.0233 -2.30769,0.43439 -3.12605,1.23358 -0.81455,0.79893 -1.23343,1.86159 -1.26445,3.18795 0.004,0.89976 0.27925,1.71432 0.82227,2.45126 0.54302,0.73288 1.33415,1.435 2.3775,2.10589 0.79493,0.51603 1.33799,1.01624 1.63279,1.50485 0.29477,0.4888 0.43051,1.03163 0.415,1.62911 -0.008,0.71751 -0.22107,1.27974 -0.63987,1.69089 -0.41899,0.40716 -0.98513,0.61288 -1.70261,0.62048 -0.52363,-0.0116 -1.00844,-0.10472 -1.46226,-0.27498 -0.45378,-0.17453 -0.82615,-0.35682 -1.11308,-0.55082 l -0.62447,1.91576 z m 19.26038,-1.61728 c -0.28313,0.14738 -0.57006,0.25598 -0.87258,0.32579 -0.30252,0.0698 -0.61667,0.10472 -0.9463,0.10472 -1.18301,-0.0155 -2.10221,-0.54682 -2.75771,-1.59029 -0.65938,-1.04323 -0.99281,-2.50525 -1.0044,-4.38646 0,-1.06266 0.12798,-2.06327 0.38784,-2.99406 0.25986,-0.93483 0.65938,-1.69117 1.2062,-2.27681 0.54695,-0.58565 1.24895,-0.88418 2.10221,-0.90357 0.41891,0.008 0.78345,0.0582 1.09369,0.15126 0.31415,0.097 0.55462,0.18617 0.72139,0.27925 l 0.49641,-2.04387 c -0.24435,-0.15126 -0.56622,-0.27538 -0.97338,-0.37622 -0.40732,-0.097 -0.83007,-0.14738 -1.27218,-0.15126 -1.33427,0.0194 -2.47066,0.39557 -3.40537,1.13628 -0.93858,0.74094 -1.6561,1.73375 -2.14859,2.98269 -0.49264,1.24871 -0.74082,2.64892 -0.74474,4.19638 0.0233,2.64892 0.55854,4.6542 1.60568,6.02318 1.04727,1.36542 2.45895,2.0519 4.23141,2.05947 0.56625,-0.004 1.07817,-0.0621 1.53207,-0.17066 0.4537,-0.11247 0.82216,-0.25171 1.10916,-0.42255 l -0.36069,-1.94327 z m 3.78542,2.33883 2.54039,0 0,-10.36326 c 0,-0.18616 0.008,-0.38396 0.0271,-0.59344 0.0155,-0.20944 0.0388,-0.40716 0.0737,-0.59325 0.19781,-0.84582 0.51204,-1.47785 0.93859,-1.90444 0.42671,-0.42276 0.93863,-0.63607 1.53587,-0.63607 0.84559,0.031 1.4118,0.41876 1.71824,1.1519 0.3064,0.73691 0.44599,1.61728 0.43051,2.64112 l 0,10.29744 2.53648,0 0,-10.59596 c -0.031,-2.00905 -0.3996,-3.45568 -1.1054,-4.34005 -0.70968,-0.8844 -1.58626,-1.31476 -2.61789,-1.2994 -0.44598,0.004 -0.84166,0.0504 -1.18293,0.14777 -0.34518,0.0927 -0.65546,0.23232 -0.93467,0.41473 -0.26762,0.18228 -0.51595,0.3918 -0.74866,0.6323 -0.23659,0.24047 -0.43815,0.50017 -0.60504,0.7833 l -0.0659,0 0,-8.57905 -2.54039,0 0,22.8364 z m -51.92868,-5.64324 c 0.004,0.20168 -0.004,0.38784 -0.0116,0.56625 -0.0116,0.17841 -0.0388,0.34519 -0.0892,0.49261 -0.29865,1.12467 -0.6749,1.86942 -1.13259,2.23775 -0.46162,0.36497 -0.89589,0.53166 -1.31085,0.50421 -0.92311,-0.0427 -1.60568,-0.63607 -2.0479,-1.77638 -0.44207,-1.14004 -0.66318,-2.5753 -0.65927,-4.30098 -0.004,-1.08233 0.0853,-2.08674 0.26374,-3.01373 0.18229,-0.92679 0.48481,-1.67553 0.8998,-2.24532 0.41888,-0.57052 0.97742,-0.86521 1.6755,-0.8806 0.62447,0.0272 1.1597,0.33742 1.59789,0.93459 0.43819,0.59344 0.702,1.31876 0.77965,2.16814 0.0155,0.18268 0.0272,0.36458 0.031,0.54302 0.004,0.17841 0.004,0.34907 0.004,0.51181 l 0,4.25863 z m 0,-17.19316 0,8.48224 -0.0659,0 c -0.32191,-0.67113 -0.74459,-1.1519 -1.2565,-1.44686 -0.51204,-0.29476 -1.06278,-0.43815 -1.65235,-0.43439 -1.28373,-0.008 -2.39681,0.67113 -3.33551,2.02848 -0.93852,1.36142 -1.43504,3.45567 -1.47762,6.28715 0.0233,2.65294 0.4577,4.67738 1.30704,6.07359 0.84938,1.39617 1.96254,2.09829 3.34324,2.10989 0.84558,-0.0233 1.54758,-0.25598 2.1138,-0.69809 0.56234,-0.44598 0.96961,-0.95802 1.22175,-1.53986 l 0.13187,0 0.16678,1.97425 2.17194,0 c -0.0194,-0.4964 -0.0465,-1.11308 -0.0776,-1.84999 -0.031,-0.74071 -0.0504,-1.39997 -0.0543,-1.97805 l 0,-19.00836 -2.53648,0 z m 9.10659,13.20226 c 0.031,-0.74071 0.15126,-1.46602 0.35294,-2.16814 0.20168,-0.70189 0.49249,-1.27974 0.86866,-1.74136 0.37233,-0.45758 0.83787,-0.69808 1.38861,-0.71371 0.63607,-0.008 1.18681,0.3607 1.6599,1.10928 0.4693,0.74854 0.7098,1.91984 0.71764,3.51393 l -4.98779,0 z m 7.36137,1.87721 c 0.0155,-0.19392 0.031,-0.40739 0.0427,-0.63607 0.0155,-0.2327 0.0194,-0.50043 0.0194,-0.81056 0.004,-1.22171 -0.14738,-2.36202 -0.45773,-3.42487 -0.31416,-1.05863 -0.80285,-1.91984 -1.47382,-2.58291 -0.67086,-0.65949 -1.54355,-1.0006 -2.61793,-1.02407 -1.62507,0.0272 -2.92436,0.78357 -3.89006,2.26522 -0.96961,1.48142 -1.46613,3.53309 -1.48933,6.14721 0.004,2.49009 0.48873,4.44092 1.46211,5.85652 0.97353,1.4156 2.41244,2.13711 4.31285,2.16411 0.6555,0 1.29548,-0.0659 1.91604,-0.19393 0.62055,-0.12799 1.15958,-0.31415 1.6134,-0.56241 l -0.42664,-1.846 c -0.31416,0.17066 -0.69433,0.31028 -1.13259,0.41876 -0.44211,0.11248 -0.94631,0.17104 -1.50865,0.17453 -0.61667,0.0194 -1.21012,-0.13187 -1.77637,-0.44598 -0.56622,-0.31804 -1.03163,-0.9076 -1.40009,-1.76835 -0.36845,-0.86497 -0.56625,-2.10612 -0.58956,-3.7312 l 7.39627,0 z m -38.17189,7.75693 2.53652,0 0,-10.06473 c 0,-0.28274 0.008,-0.54283 0.0271,-0.78333 0.0233,-0.24047 0.0582,-0.45378 0.10472,-0.63607 0.1629,-0.86122 0.46542,-1.50888 0.90369,-1.94703 0.44222,-0.43819 0.9309,-0.6593 1.47385,-0.6593 0.90368,0.0349 1.50473,0.43035 1.80349,1.1789 0.29864,0.74873 0.43435,1.61751 0.41115,2.61412 l 0,10.29744 2.53652,0 0,-10.72403 c -0.0194,-1.93543 -0.38789,-3.33944 -1.09757,-4.21578 -0.71387,-0.87657 -1.63291,-1.30719 -2.7615,-1.2956 -0.84559,0.0116 -1.57858,0.21332 -2.20305,0.60912 -0.62435,0.39176 -1.11308,0.91516 -1.46214,1.56686 l -0.0659,0 -0.13186,-1.90825 -2.20685,0 c 0.0194,0.61265 0.0465,1.22552 0.0776,1.8344 0.031,0.60907 0.0504,1.36918 0.0543,2.28461 l 0,11.84867 z m -6.09322,-18.44993 c 0.46549,-0.008 0.83398,-0.15902 1.1016,-0.45382 0.27149,-0.29477 0.40727,-0.69429 0.41104,-1.19449 -0.004,-0.50044 -0.13963,-0.89977 -0.41104,-1.19449 -0.26762,-0.29515 -0.63611,-0.44622 -1.1016,-0.45382 -0.4266,0.008 -0.77562,0.15902 -1.05483,0.45382 -0.27537,0.29476 -0.41891,0.69405 -0.43051,1.19449 0.008,0.5002 0.14738,0.8998 0.415,1.19449 0.27149,0.29515 0.61287,0.44602 1.03555,0.45382 l 0.0349,0 z m 1.31499,2.48225 -2.53655,0 0,15.96764 2.53655,0 0,-15.96764 z m -8.23014,15.96768 0,-14.05943 2.90493,0 0,-1.90825 -2.90493,0 0,-1.02403 c -0.0194,-1.06646 0.12799,-1.98566 0.44218,-2.76918 0.31416,-0.77954 0.91532,-1.19073 1.80349,-1.22932 0.3254,0.004 0.60496,0.031 0.83387,0.0814 0.22883,0.0543 0.42264,0.11247 0.58565,0.18229 l 0.39556,-1.97426 c -0.22883,-0.12023 -0.51192,-0.21293 -0.84166,-0.28701 -0.32967,-0.0737 -0.70972,-0.10859 -1.13639,-0.11247 -0.51192,-0.008 -1.05107,0.0892 -1.62892,0.29476 -0.57405,0.20168 -1.09753,0.55466 -1.57466,1.05886 -0.56234,0.65147 -0.9425,1.39621 -1.1403,2.22992 -0.19393,0.83399 -0.28701,1.68714 -0.27537,2.55615 l 0,0.9928 -2.01297,0 0,1.90825 2.01297,0 0,14.05943 2.53647,0 z m -10.35934,-5.64324 c 0.004,0.20168 0,0.38784 -0.0116,0.56625 -0.0116,0.17841 -0.0388,0.34519 -0.0853,0.49261 -0.29864,1.12467 -0.67869,1.86942 -1.13639,2.23775 -0.4577,0.36497 -0.89589,0.53166 -1.311,0.50421 -0.91908,-0.0427 -1.60165,-0.63607 -2.04775,-1.77638 -0.44207,-1.14004 -0.66318,-2.5753 -0.65926,-4.30098 -0.004,-1.08233 0.0853,-2.08674 0.26761,-3.01373 0.18229,-0.92679 0.48089,-1.67553 0.89585,-2.24532 0.41879,-0.57052 0.97745,-0.86521 1.67945,-0.8806 0.62436,0.0272 1.15578,0.33742 1.59789,0.93459 0.43815,0.59344 0.69808,1.31876 0.77961,2.16814 0.0155,0.18268 0.0233,0.36458 0.0272,0.54302 0.004,0.17841 0.004,0.34907 0.004,0.51181 l 0,4.25863 z m 0,-17.19316 0,8.48224 -0.0659,0 c -0.32192,-0.67113 -0.74083,-1.1519 -1.25663,-1.44686 -0.51203,-0.29476 -1.06277,-0.43815 -1.64854,-0.43439 -1.28365,-0.008 -2.3967,0.67113 -3.3392,2.02848 -0.93863,1.36142 -1.43503,3.45567 -1.47766,6.28715 0.0233,2.65294 0.4615,4.67738 1.31089,6.07359 0.84934,1.39617 1.96254,2.09829 3.33931,2.10989 0.84559,-0.0233 1.55147,-0.25598 2.11381,-0.69809 0.56625,-0.44598 0.96961,-0.95802 1.22175,-1.53986 l 0.13187,0 0.16677,1.97425 2.17194,0 c -0.0194,-0.4964 -0.0427,-1.11308 -0.0776,-1.84999 -0.031,-0.74071 -0.0504,-1.39997 -0.0543,-1.97805 l 0,-19.00836 -2.53636,0 z m -14.38918,17.7904 c 0,0.14738 -0.008,0.30252 -0.0272,0.46162 -0.0155,0.15901 -0.0388,0.31027 -0.0737,0.46161 -0.15902,0.79516 -0.44587,1.39218 -0.86087,1.79957 -0.41899,0.40716 -0.91527,0.60884 -1.48541,0.61264 -0.46933,0.0116 -0.9076,-0.1978 -1.30708,-0.62827 -0.40336,-0.43035 -0.61668,-1.1713 -0.64386,-2.21453 0.031,-1.1365 0.31415,-1.97026 0.84946,-2.50548 0.53131,-0.535 1.14019,-0.88038 1.81884,-1.02784 0.68273,-0.15126 1.25678,-0.21331 1.72988,-0.1978 l 0,3.23837 z m 2.47066,-5.51137 c 0.0116,-1.79554 -0.34906,-3.18795 -1.07437,-4.17695 -0.7292,-0.98525 -1.88882,-1.48546 -3.47899,-1.50109 -0.80676,0.0155 -1.53975,0.12799 -2.19905,0.3417 -0.66329,0.21719 -1.17141,0.45354 -1.52815,0.71348 l 0.55854,1.78014 c 0.38009,-0.26374 0.79112,-0.46918 1.23323,-0.60885 0.44218,-0.1435 0.91148,-0.21331 1.408,-0.21719 0.98513,0.0194 1.66382,0.35682 2.02448,1.01197 0.36458,0.65953 0.53911,1.53207 0.51972,2.62196 l 0,0.4964 c -1.21784,0.008 -2.33872,0.2172 -3.36643,0.62447 -1.02396,0.4112 -1.84619,1.04323 -2.47066,1.89262 -0.6244,0.85338 -0.94643,1.95106 -0.96182,3.29281 0.0233,1.40021 0.38396,2.50545 1.08988,3.31625 0.70588,0.80676 1.60569,1.21768 2.69934,1.23331 0.68268,-0.004 1.29544,-0.17453 1.83459,-0.51204 0.54294,-0.3413 0.98893,-0.81432 1.33807,-1.43123 l 0.097,0 0.16677,1.67957 2.27666,0 c -0.0814,-0.51983 -0.12799,-1.10148 -0.14738,-1.73755 -0.0155,-0.63607 -0.0233,-1.26837 -0.0194,-1.88881 l 0,-6.93101 z m -14.10605,10.55737 0,-14.05943 2.90504,0 0,-1.90825 -2.90504,0 0,-1.02403 c -0.0194,-1.06646 0.12798,-1.98566 0.44206,-2.76918 0.31416,-0.77954 0.9154,-1.19073 1.80361,-1.22932 0.32579,0.004 0.60504,0.031 0.83371,0.0814 0.22883,0.0543 0.42291,0.11247 0.5858,0.18229 l 0.39557,-1.97426 c -0.23271,-0.12023 -0.51192,-0.21293 -0.84155,-0.28701 -0.32967,-0.0737 -0.70984,-0.10859 -1.14031,-0.11247 -0.50812,-0.008 -1.05106,0.0892 -1.62511,0.29476 -0.57394,0.20168 -1.09769,0.55466 -1.57466,1.05886 -0.56234,0.65147 -0.94239,1.39621 -1.14019,2.22992 -0.1978,0.83399 -0.29089,1.68714 -0.27537,2.55615 l 0,0.9928 -2.01289,0 0,1.90825 2.01289,0 0,14.05943 2.53647,0 z m -14.95141,-9.9329 c -0.004,-0.21332 0,-0.42279 0.0116,-0.62447 0.0116,-0.2013 0.0388,-0.39933 0.0853,-0.59725 0.0853,-0.75634 0.34907,-1.42339 0.79113,-1.99721 0.44219,-0.57406 0.96194,-0.87661 1.55538,-0.9076 1.00065,0.0465 1.71816,0.64789 2.16023,1.80333 0.44218,1.15594 0.6555,2.59093 0.64778,4.30529 0.0155,1.6561 -0.19004,3.0717 -0.61287,4.25463 -0.41888,1.1791 -1.15202,1.79953 -2.19514,1.85376 -0.36845,0.031 -0.77976,-0.13187 -1.22951,-0.48481 -0.45382,-0.35294 -0.81448,-1.08206 -1.08209,-2.19134 -0.0504,-0.1978 -0.0853,-0.41096 -0.10472,-0.63606 -0.0194,-0.22108 -0.0272,-0.44979 -0.0272,-0.6825 l 0,-4.09577 z m -2.53659,16.2702 2.53659,0 0,-7.88477 0.0659,0 c 0.20943,0.46542 0.5429,0.87634 0.99281,1.24092 0.45378,0.36069 1.05886,0.55086 1.81519,0.57025 1.28765,0.0272 2.41621,-0.60884 3.38583,-1.91201 0.96961,-1.29936 1.47773,-3.42468 1.52815,-6.36855 -0.0155,-2.65295 -0.43439,-4.68523 -1.25662,-6.08923 -0.81836,-1.40777 -1.93923,-2.11369 -3.36267,-2.12932 -0.62055,-0.008 -1.22552,0.15902 -1.81896,0.50828 -0.59333,0.34906 -1.10928,0.93858 -1.54759,1.7645 l -0.0659,0 -0.13187,-2.00505 -2.27278,0 c 0.0194,0.54307 0.0427,1.20613 0.0776,1.99346 0.031,0.78356 0.0504,1.78017 0.0543,2.98649 l 0,17.32503 z m -17.84086,-15.97144 c 0.0349,-0.74071 0.15126,-1.46602 0.35294,-2.16814 0.20556,-0.70189 0.49253,-1.27974 0.86878,-1.74136 0.37621,-0.45758 0.83767,-0.69808 1.38837,-0.71371 0.63611,-0.008 1.19073,0.3607 1.66002,1.10928 0.4693,0.74854 0.70984,1.91984 0.71752,3.51393 l -4.98763,0 z m 7.36125,1.87721 c 0.0194,-0.19392 0.031,-0.40739 0.0465,-0.63607 0.0116,-0.2327 0.0194,-0.50043 0.0194,-0.81056 0.004,-1.22171 -0.15126,-2.36202 -0.4615,-3.42487 -0.31027,-1.05863 -0.80284,-1.91984 -1.47381,-2.58291 -0.67113,-0.65949 -1.54371,-1.0006 -2.61793,-1.02407 -1.62511,0.0272 -2.92056,0.78357 -3.89017,2.26522 -0.96962,1.48142 -1.46215,3.53309 -1.48545,6.14721 0,2.49009 0.48872,4.44092 1.46222,5.85652 0.96961,1.4156 2.40844,2.13711 4.30885,2.16411 0.65558,0 1.29556,-0.0659 1.91604,-0.19393 0.62055,-0.12799 1.1597,-0.31415 1.6174,-0.56241 l -0.4306,-1.846 c -0.31415,0.17066 -0.69025,0.31028 -1.13247,0.41876 -0.44207,0.11248 -0.94239,0.17104 -1.50484,0.17453 -0.62067,0.0194 -1.21001,-0.13187 -1.77626,-0.44598 -0.56634,-0.31804 -1.03563,-0.9076 -1.40412,-1.76835 -0.36846,-0.86497 -0.5623,-2.10612 -0.58554,-3.7312 l 7.39228,0 z m -60.29457,-8.21075 -2.53648,0 0,10.52612 c 0.004,0.52363 -0.0388,0.99684 -0.13186,1.41963 -0.0582,0.42279 -0.2715,0.87258 -0.63227,1.35739 -0.3607,0.4848 -0.9114,0.7447 -1.64831,0.78733 -0.85326,-0.0272 -1.43112,-0.44196 -1.72987,-1.24895 -0.29865,-0.80676 -0.43815,-1.84219 -0.41508,-3.10653 l 0,-9.73499 -2.54027,0 0,10.09553 c -0.0116,1.98965 0.29088,3.50633 0.9076,4.55336 0.61667,1.04726 1.6096,1.57469 2.98637,1.58249 0.86498,-0.031 1.5863,-0.25598 2.17194,-0.67489 0.58185,-0.41876 0.99293,-0.84155 1.22952,-1.26838 l 0.0659,0 0.1978,1.67957 2.20684,0 c -0.0194,-0.58968 -0.0427,-1.24518 -0.0776,-1.96266 -0.031,-0.72131 -0.0504,-1.51648 -0.0543,-2.38902 l 0,-11.616 z m 5.38723,-2.70713 0,2.70713 -1.94707,0 0,1.90825 1.94707,0 0,9.27717 c -0.004,1.08985 0.0737,1.94703 0.22883,2.5715 0.15513,0.62044 0.39932,1.10928 0.72531,1.45442 0.29864,0.34131 0.66318,0.58945 1.09365,0.73691 0.42671,0.14738 0.896,0.22107 1.41172,0.21719 0.41115,0 0.77193,-0.0233 1.07825,-0.0698 0.3064,-0.0465 0.57405,-0.10859 0.80284,-0.19392 l -0.13186,-1.94304 c -0.25598,0.0659 -0.59725,0.10085 -1.02392,0.10085 -0.47309,0.0194 -0.86098,-0.15514 -1.17133,-0.53143 -0.3064,-0.37233 -0.46538,-1.07829 -0.47698,-2.10993 l 0,-9.50984 3.06779,0 0,-1.90824 -3.06779,0 0,-3.7312 -2.53648,1.02407 z m 8.07872,17.95326 c 0.3607,0.27925 0.82619,0.50424 1.39229,0.6671 0.56637,0.16677 1.14822,0.24822 1.73767,0.2521 1.36138,0.004 2.49389,-0.38785 3.40149,-1.1713 0.91125,-0.78733 1.38457,-1.97782 1.41948,-3.57594 -0.0233,-1.09745 -0.3413,-2.04008 -0.95802,-2.8274 -0.61276,-0.78733 -1.39617,-1.47386 -2.34271,-2.05951 -0.77561,-0.51176 -1.30305,-0.96961 -1.58617,-1.37274 -0.27925,-0.3996 -0.41104,-0.85718 -0.39557,-1.36922 0,-0.54682 0.17453,-1.02003 0.51584,-1.41959 0.34518,-0.39937 0.85718,-0.60485 1.53587,-0.62804 0.42275,0.004 0.81064,0.0737 1.1597,0.20556 0.34518,0.12799 0.67478,0.30252 0.9811,0.5234 l 0.65937,-1.91209 c -0.32579,-0.22107 -0.72519,-0.41499 -1.19449,-0.57405 -0.46933,-0.15902 -1.01627,-0.24434 -1.64062,-0.2521 -1.26822,0.0233 -2.30769,0.43439 -3.12213,1.23359 -0.81836,0.79892 -1.23723,1.86158 -1.26826,3.18794 0.004,0.89976 0.27925,1.71432 0.82228,2.45127 0.5429,0.73287 1.33415,1.43499 2.37742,2.10589 0.79512,0.51603 1.33807,1.01623 1.63291,1.50484 0.29476,0.4888 0.43439,1.03163 0.41887,1.62911 -0.0116,0.71752 -0.22495,1.27974 -0.6439,1.69089 -0.41496,0.40717 -0.98513,0.61288 -1.70653,0.62048 -0.51971,-0.0116 -1.00452,-0.10472 -1.45822,-0.27498 -0.45378,-0.17453 -0.82223,-0.35682 -1.11316,-0.55082 l -0.62451,1.91577 z m 19.25669,-1.61728 c -0.27925,0.14738 -0.57013,0.25598 -0.86877,0.32579 -0.30252,0.0698 -0.61676,0.10472 -0.94643,0.10472 -1.17897,-0.0155 -2.10208,-0.54682 -2.75754,-1.59029 -0.6593,-1.04323 -0.99285,-2.50525 -1.00457,-4.38646 0,-1.06266 0.12799,-2.06327 0.38789,-2.99406 0.25986,-0.93483 0.66318,-1.69117 1.2062,-2.27681 0.54671,-0.58565 1.24883,-0.88418 2.10213,-0.90357 0.41887,0.008 0.78341,0.0582 1.09377,0.15126 0.31415,0.097 0.55462,0.18617 0.72139,0.27925 l 0.4964,-2.04387 c -0.24046,-0.15126 -0.56621,-0.27538 -0.97349,-0.37622 -0.40728,-0.097 -0.82995,-0.14738 -1.27218,-0.15126 -1.33415,0.0194 -2.47054,0.39557 -3.40536,1.13628 -0.93848,0.74094 -1.65208,1.73375 -2.1486,2.98269 -0.49252,1.24871 -0.74071,2.64892 -0.74462,4.19638 0.0233,2.64892 0.55854,4.6542 1.60568,6.02318 1.04715,1.36542 2.45899,2.0519 4.23145,2.05947 0.56621,-0.004 1.07813,-0.0621 1.53191,-0.17066 0.45382,-0.11247 0.82619,-0.25171 1.1092,-0.42255 l -0.36457,-1.94327 z m 3.79314,2.33883 2.53648,0 0,-10.36326 c 0,-0.18616 0.008,-0.38396 0.0233,-0.59344 0.0194,-0.20944 0.0427,-0.40716 0.0776,-0.59325 0.20168,-0.84582 0.51584,-1.47785 0.93863,-1.90444 0.42655,-0.42276 0.93858,-0.63607 1.53583,-0.63607 0.84167,0.031 1.4156,0.41876 1.71812,1.1519 0.3064,0.73691 0.4499,1.61728 0.43051,2.64112 l 0,10.29744 2.53648,0 0,-10.59596 c -0.0272,-2.00905 -0.39937,-3.45568 -1.10917,-4.34005 -0.70592,-0.8844 -1.57857,-1.31476 -2.61792,-1.2994 -0.44218,0.004 -0.83387,0.0504 -1.17913,0.14777 -0.34518,0.0927 -0.65546,0.23232 -0.93467,0.41473 -0.26762,0.18228 -0.51584,0.3918 -0.75254,0.6323 -0.23271,0.24047 -0.43427,0.50017 -0.60105,0.7833 l -0.0659,0 0,-8.57905 -2.53647,0 0,22.8364 z m 328.90546,84.62814 c 0.0116,0.82235 -0.008,1.72192 -0.0543,2.70713 -0.0427,0.98121 -0.17065,1.84599 -0.37621,2.59473 -0.45758,1.98965 -1.47761,3.64172 -3.06387,4.96432 -1.58641,1.32636 -3.57606,2.01285 -5.96899,2.06327 -3.61865,-0.0892 -6.42274,-1.59386 -8.42399,-4.51834 -2.00528,-2.92044 -3.01752,-6.71723 -3.05243,-11.39489 0.0931,-5.60819 1.23723,-9.87465 3.42469,-12.7951 2.19133,-2.92044 4.87527,-4.3905 8.05173,-4.40989 2.3773,0.0116 4.35939,0.70615 5.93405,2.0789 1.57458,1.37701 2.65675,3.35886 3.24239,5.95356 0.0776,0.50424 0.14351,1.03543 0.19781,1.59408 0.0582,0.55846 0.0853,1.12468 0.0892,1.69873 l 0,9.4635 z m 25.77624,-16.89847 c 0.004,-5.51518 0.0659,-9.9639 0.17841,-13.34572 0.11247,-3.3823 0.24434,-6.14365 0.39169,-8.29239 l -22.19254,0 -0.85718,7.58623 -0.29088,0 c -1.84619,-2.94767 -4.27427,-5.20858 -7.27213,-6.78327 -3.002,-1.5709 -6.64384,-2.36203 -10.93339,-2.37766 -9.04066,0.15126 -16.56492,3.53336 -22.58049,10.14998 -6.01159,6.61286 -9.12979,15.54888 -9.36262,26.80791 0.1629,10.39045 2.95547,18.65941 8.37749,24.8031 5.42605,6.13937 12.51588,9.28473 21.26953,9.43219 3.541,0 6.82222,-0.64767 9.83975,-1.95083 3.02128,-1.30316 5.62369,-3.27742 7.79951,-5.92234 l 0.28701,0 0,3.14916 c -0.10899,5.42613 -1.68714,9.44402 -4.73173,12.04279 -3.04851,2.59849 -6.91918,3.89006 -11.616,3.87443 -4.09186,-0.0621 -7.94701,-0.62044 -11.57338,-1.6677 -3.61864,-1.05107 -6.54301,-2.2186 -8.76913,-3.4983 l -4.86751,19.47753 c 3.36243,1.72596 7.33805,3.03692 11.92232,3.93672 4.58435,0.90357 9.3471,1.35735 14.29226,1.36138 5.50342,0.0659 10.80532,-0.52743 15.90942,-1.78797 5.10383,-1.26054 9.68833,-3.57214 13.75288,-6.94261 4.21993,-3.80082 7.12878,-8.44341 8.73446,-13.93136 1.60568,-5.49195 2.36582,-11.35227 2.29217,-17.58872 l 0,-38.53255 z M 158.33421,467.82071 c 0.7369,0 8.1331,-0.20168 11.16609,1.90064 3.0019,2.08646 0.86095,10.30121 0.5158,10.65038 -1.00844,1.02361 21.19973,0.40313 21.6302,0.46542 0.43047,0.0617 9.58748,9.62608 8.61019,10.06047 -3.75051,1.66393 -30.03111,2.64515 -30.70577,3.01372 -0.67489,0.36845 -1.98197,15.40119 -1.98197,16.40202 0,0.91517 19.29932,-13.91216 29.12731,-14.36195 6.72138,-0.30252 9.30831,6.58939 9.83962,8.51703 0.59345,2.15255 2.30389,7.84617 1.68333,16.75881 -0.29515,4.18099 -3.12616,20.60244 -11.8449,27.7427 -2.26887,1.85782 -7.11695,4.11117 -10.74327,1.96646 -3.10665,-1.8384 -16.54553,-12.64787 -16.13054,-12.69426 2.3348,-0.24822 6.19775,1.1713 8.02835,-0.0737 2.7693,-1.88478 2.97474,-14.00498 3.37434,-18.1706 0.0698,-0.69809 -9.20379,2.33503 -10.85978,3.50256 -1.6599,1.16346 -3.7931,3.49046 -4.35156,5.57316 -0.58576,2.20293 0.47701,5.50354 -0.46941,5.50354 l -13.77239,0 c -0.9463,0 0.11636,-3.30061 -0.47309,-5.50354 -0.55466,-2.0827 -2.68789,-4.4097 -4.34776,-5.57316 -1.65614,-1.16753 -10.92951,-4.20065 -10.86358,-3.50256 0.40324,4.16562 0.60496,16.28582 3.37814,18.1706 1.8306,1.24514 5.69355,-0.17453 8.02835,0.0737 0.41495,0.0465 -13.02389,10.85586 -16.13054,12.69426 -3.62632,2.14471 -8.4744,-0.1086 -10.73939,-1.96646 -8.72274,-7.14026 -11.55394,-23.56171 -11.84878,-27.7427 -0.6206,-8.91264 0.57001,-13.26051 1.6445,-16.75881 0.59333,-1.9314 3.15704,-8.81955 9.87845,-8.51703 9.83191,0.44979 29.12731,15.27712 29.12731,14.36195 0,-1.00083 -1.30708,-16.03368 -1.98197,-16.40202 -0.67478,-0.36846 -26.95525,-1.34979 -30.70577,-3.01372 -0.97733,-0.43439 8.17972,-9.99869 8.61019,-10.06047 0.43047,-0.0624 22.6386,0.55819 21.63408,-0.46542 -0.34519,-0.34906 -2.48998,-8.56392 0.51192,-10.65038 3.03299,-2.10232 10.42915,-1.90064 11.1623,-1.90064 m 0,69.47882 c 0,0 -0.80285,-0.0233 6.36452,-0.0233 1.33795,0 15.49834,21.31212 16.7201,22.94104 0.51959,0.69052 -3.78558,2.29997 -5.09251,2.24175 -2.3619,-0.10859 -8.6179,-6.17444 -9.36641,-6.92674 -0.75242,-0.75254 1.14799,9.03287 0.60884,9.67673 -0.53523,0.6439 -9.23454,1.11688 -9.23454,1.11688 0,0 -8.69552,-0.47298 -9.23075,-1.11688 -0.53915,-0.64386 1.36126,-10.42927 0.60884,-9.67673 -0.75242,0.7523 -7.00451,6.8183 -9.36641,6.92674 -1.30708,0.0582 -5.61222,-1.55123 -5.0925,-2.24175 1.22171,-1.62892 15.36259,-22.96423 16.70066,-22.94104 6.38016,0 6.38016,0.0233 6.38016,0.0233 M 117.16423,433.88035 c 0,0.20168 -0.004,0.38784 -0.0116,0.56625 -0.0116,0.17841 -0.0388,0.34519 -0.0892,0.49261 -0.29477,1.12467 -0.67478,1.86942 -1.13248,2.23775 -0.46149,0.36497 -0.896,0.53166 -1.31099,0.50421 -0.92296,-0.0427 -1.60557,-0.63607 -2.04776,-1.77638 -0.44218,-1.14004 -0.66317,-2.5753 -0.65937,-4.30098 -0.004,-1.08233 0.0853,-2.08674 0.26373,-3.01373 0.18229,-0.92679 0.48481,-1.67553 0.89977,-2.24532 0.41499,-0.57052 0.97733,-0.86521 1.67553,-0.8806 0.62436,0.0272 1.15959,0.33742 1.59789,0.93459 0.44218,0.59344 0.702,1.31876 0.77942,2.16814 0.0194,0.18268 0.0271,0.36458 0.031,0.54302 0.004,0.17841 0.004,0.34907 0.004,0.51181 l 0,4.25863 z m 0,-17.19316 0,8.48224 -0.0659,0 c -0.3258,-0.67113 -0.74072,-1.1519 -1.25663,-1.44686 -0.51192,-0.29476 -1.06266,-0.43815 -1.65222,-0.43439 -1.28374,-0.008 -2.39682,0.67113 -3.33541,2.02848 -0.94254,1.36142 -1.43503,3.45567 -1.48176,6.28715 0.0271,2.65294 0.46549,4.67738 1.31107,6.07359 0.84935,1.39617 1.96634,2.09829 3.34312,2.10989 0.84558,-0.0233 1.54759,-0.25598 2.11392,-0.69809 0.56222,-0.44598 0.96962,-0.95802 1.2216,-1.53986 l 0.13187,0 0.16289,1.97425 2.17586,0 c -0.0194,-0.4964 -0.0465,-1.11308 -0.0776,-1.84999 -0.031,-0.74071 -0.0504,-1.39997 -0.0543,-1.97805 l 0,-19.00836 -2.53659,0 z m 9.10671,13.20226 c 0.031,-0.74071 0.15126,-1.46602 0.35294,-2.16814 0.20168,-0.70189 0.4926,-1.27974 0.86874,-1.74136 0.37233,-0.45758 0.83778,-0.69808 1.38853,-0.71371 0.63606,-0.008 1.18681,0.3607 1.66002,1.10928 0.46929,0.74854 0.7098,1.91984 0.71747,3.51393 l -4.98762,0 z m 7.36125,1.87721 c 0.0155,-0.19392 0.031,-0.40739 0.0427,-0.63607 0.0155,-0.2327 0.0194,-0.50043 0.0233,-0.81056 0.004,-1.22171 -0.15126,-2.36202 -0.4615,-3.42487 -0.31416,-1.05863 -0.80284,-1.91984 -1.47382,-2.58291 -0.67113,-0.65949 -1.54367,-1.0006 -2.61792,-1.02407 -1.62512,0.0272 -2.92436,0.78357 -3.89018,2.26522 -0.96962,1.48142 -1.46602,3.53309 -1.48933,6.14721 0.004,2.49009 0.4926,4.44092 1.46222,5.85652 0.97353,1.4156 2.41233,2.13711 4.31274,2.16411 0.65561,0 1.29168,-0.0659 1.91603,-0.19393 0.62056,-0.12799 1.1597,-0.31415 1.61337,-0.56241 l -0.42667,-1.846 c -0.31415,0.17066 -0.69017,0.31028 -1.13235,0.41876 -0.44211,0.11248 -0.94631,0.17104 -1.50877,0.17453 -0.61679,0.0194 -1.21,-0.13187 -1.77625,-0.44598 -0.56638,-0.31804 -1.03175,-0.9076 -1.40032,-1.76835 -0.36846,-0.86497 -0.56614,-2.10612 -0.58934,-3.7312 l 7.39616,0 z m 266.93147,120.7482 c 2.83497,1.46226 6.3335,2.65272 10.49129,3.57975 4.15771,0.92319 8.72654,1.4002 13.70649,1.43123 10.87906,-0.1435 18.97333,-2.40085 24.29083,-6.76792 5.31737,-4.36327 7.96632,-9.98328 7.95081,-16.85961 0,-5.01877 -1.50484,-9.35101 -4.51065,-12.98898 -3.00578,-3.64199 -7.94702,-6.57404 -14.81966,-8.80043 -4.08394,-1.31476 -6.88815,-2.44343 -8.42778,-3.38559 -1.53599,-0.94262 -2.26522,-1.96266 -2.19137,-3.06414 0.0155,-1.41964 0.63219,-2.44747 1.84998,-3.08354 1.22176,-0.63207 2.94768,-0.94239 5.18947,-0.93079 2.95143,0.0621 5.85248,0.51204 8.71483,1.34598 2.86231,0.82996 5.1584,1.67531 6.89203,2.52488 l 4.15,-17.46872 c -2.33872,-1.04323 -5.31738,-1.96242 -8.94766,-2.75378 -3.62633,-0.7949 -7.60955,-1.20989 -11.95731,-1.25275 -9.42854,0.13226 -16.86744,2.40868 -22.31668,6.83397 -5.44924,4.42932 -8.23014,10.21576 -8.34649,17.36385 -0.17066,4.16559 1.31879,8.16432 4.47582,11.98834 3.15695,3.82424 8.58297,6.99683 16.2856,9.51387 3.71169,1.15571 6.19394,2.14095 7.44669,2.95931 1.25274,0.81455 1.83447,1.83459 1.74147,3.06387 0.0271,1.35005 -0.56626,2.33883 -1.77638,2.95551 -1.21392,0.61663 -3.20369,0.92295 -5.97667,0.91539 -3.32005,-0.0698 -6.84945,-0.6517 -10.59605,-1.73755 -3.74652,-1.08985 -6.70579,-2.28058 -8.87769,-3.56834 l -4.44092,18.18619 z M 275.19614,524.00803 c 0.008,0.86118 -0.0116,1.68333 -0.0543,2.47446 -0.0465,0.78733 -0.17065,1.53987 -0.37621,2.25739 -0.46542,2.42024 -1.58238,4.42148 -3.35483,5.99998 -1.77246,1.58249 -3.99874,2.40081 -6.68648,2.45503 -3.58777,-0.004 -6.5197,-1.39241 -8.80027,-4.15376 -2.28058,-2.76538 -3.45567,-6.87655 -3.52944,-12.32971 -0.0194,-4.72002 0.98501,-8.68393 3.00972,-11.8991 2.02456,-3.21517 5.18159,-4.8869 9.46346,-5.01877 2.74587,0.0659 4.99934,0.94239 6.7602,2.63355 1.76075,1.69493 2.90105,3.82805 3.42077,6.39931 0.0737,0.51227 0.11247,1.0629 0.12799,1.64855 0.0155,0.58564 0.0194,1.13627 0.0194,1.6483 l 0,7.88477 z m 0,-69.76954 0,36.67072 -0.29089,0 c -1.60948,-2.28818 -3.90557,-4.0063 -6.88035,-5.1506 -2.97479,-1.14787 -6.41886,-1.71816 -10.3244,-1.71816 -5.62385,0.0194 -10.82095,1.48949 -15.58762,4.40613 -4.77044,2.91645 -8.60628,7.15565 -11.51121,12.71368 -2.90497,5.56157 -4.37499,12.31785 -4.41369,20.26867 0.22883,11.16218 3.17646,19.96258 8.84286,26.39291 5.67035,6.43461 12.69805,9.7156 21.09105,9.84366 4.11117,0.0349 8.07876,-0.81835 11.90301,-2.55994 3.82416,-1.73352 6.92697,-4.55716 9.31611,-8.45881 l 0.287,0 1.00453,9.44786 23.05359,0 c -0.15126,-2.45104 -0.28313,-5.64301 -0.39568,-9.59509 -0.11248,-3.94855 -0.17453,-8.14892 -0.17841,-12.60121 l 0,-79.65982 -25.91594,0 z m 67.67924,62.31513 c -0.008,-0.57785 0.008,-1.14407 0.0349,-1.70249 0.031,-0.55846 0.11635,-1.08989 0.2521,-1.59413 0.48872,-2.5715 1.69873,-4.70461 3.62245,-6.39954 1.92372,-1.6909 4.20429,-2.57127 6.84553,-2.63329 4.08394,0.0853 7.13637,1.67147 9.16081,4.76664 2.0208,3.0949 3.03304,7.19067 3.02912,12.29062 -0.0349,5.15464 -1.14799,9.22323 -3.33544,12.20569 -2.1835,2.98246 -5.23593,4.50673 -9.1415,4.56875 -2.61424,-0.0659 -4.80546,-0.90357 -6.57792,-2.50929 -1.77249,-1.60568 -2.92436,-3.5875 -3.45959,-5.94952 -0.287,-1.28754 -0.43051,-2.72257 -0.43051,-4.30126 l 0,-8.74218 z m -25.9159,67.90816 25.9159,0 0,-33.52157 0.28701,0 c 1.32636,1.84619 3.44408,3.41685 6.34513,4.70841 2.90493,1.28777 6.38,1.96243 10.43307,2.01688 5.22433,0.0155 10.26629,-1.33039 15.13381,-4.03375 4.86355,-2.70314 8.87388,-6.83774 12.03875,-12.40333 3.16095,-5.56936 4.80158,-12.6436 4.9101,-21.22669 -0.0853,-7.66389 -1.50485,-14.16811 -4.25084,-19.51663 -2.74975,-5.34825 -6.31018,-9.42059 -10.68517,-12.21701 -4.37099,-2.80017 -9.03287,-4.20821 -13.98962,-4.22764 -4.89067,0.004 -9.26945,0.89224 -13.14024,2.66458 -3.86675,1.77634 -7.13633,4.41746 -9.80076,7.92759 l -0.28701,0 -1.14798,-9.01747 -22.33608,0 c 0.15126,3.29685 0.27925,6.95017 0.39176,10.9605 0.11636,4.01433 0.17453,8.3814 0.18229,13.11324 l 0,74.77289 z"
       id="path192"
       style="fill:#002f56;fill-opacity:1;fill-rule:evenodd;stroke:none" />
    <path
       d="m 334.64916,647.42861 c -0.34906,-1.14407 -1.36518,-3.29282 -2.71496,-1.79957 l 0.81455,2.67238 1.90041,-0.87281 z m 4.10726,-24.5233 c -0.95411,0.43796 0.38008,2.4354 0.41119,3.72697 5.48415,1.39617 -0.34906,-1.14407 -0.41119,-3.72697 m -16.1227,5.23182 c -1.07058,0.0582 -3.03692,-1.65207 -3.40537,0.69432 0.43427,0.23658 3.70009,2.65271 3.40537,-0.69432 m -35.19319,-5.15061 -1.26826,0.58185 2.26107,5.05356 c 0.37233,-2.34639 -0.49652,-2.8196 -0.99281,-5.63541 m -5.56951,-0.4886 c -1.45051,-2.38142 -3.9019,-2.12152 -5.95345,-2.92045 -1.35358,1.49302 -2.45115,0.25598 -3.83576,0.45781 -0.51971,0.67466 -0.48869,1.9622 -1.23723,1.87295 3.92109,-1.36518 8.26493,5.77911 11.02644,0.58969 m -56.26117,-5.48035 c -0.2327,-0.76014 -0.062,-2.5791 -1.44651,-2.37742 0.031,1.28753 0.41108,3.7272 -2.0441,3.9831 0.98524,0.85338 4.96846,2.0673 3.49061,-1.60568 m 369.60627,-15.8706 c -9.08352,4.60754 -19.32655,5.39867 -27.38196,3.87846 -2.81193,-5.67427 -9.95621,-0.6439 -15.0951,-0.896 -9.22687,2.93608 -18.03482,1.32636 -26.91643,5.41054 -4.01436,-2.50953 -8.65685,0.0582 -13.04723,-0.10084 -7.68339,-3.86687 -16.00255,5.61977 -22.93724,1.83835 -10.41364,2.61416 -20.62564,4.69283 -30.8144,3.28502 -1.47386,1.10928 -2.07502,2.69557 -1.81117,4.75104 -4.32472,2.42404 -8.33881,-0.0853 -12.61284,0.13575 0.55074,0.62044 0.0349,1.29157 0.15126,1.67173 -3.20745,0.17027 -6.67488,-1.71835 -9.49448,0.88794 l -1.90429,0.87281 0.23659,0.7639 c -1.43891,2.40461 -4.32837,2.42404 -6.29479,0.71372 -0.71751,1.20232 1.07825,4.7278 -1.57469,5.51137 -3.84732,-4.32445 -7.65218,-2.5753 -10.43307,-6.9542 l 0.40336,-1.05863 -2.5404,1.1673 c 0.34906,1.14811 -0.36845,2.3464 -0.76793,3.40526 -3.08734,0.54705 -6.3219,-0.57762 -9.21136,-0.55843 -1.50092,-0.17841 -0.1435,-1.67173 -1.44659,-2.38145 l -0.63219,0.29476 c -0.69036,2.49009 5.11182,3.7388 0.67478,5.78291 -4.09954,-1.59789 -2.69553,-5.29407 -7.25269,-3.63416 -0.43439,-0.23271 -2.42012,1.55146 -3.75051,-0.45002 -0.55086,-0.62044 -0.34907,-1.14787 -0.15126,-1.6715 -2.10209,1.4002 -5.59271,3.00589 -6.75241,-0.81456 l -0.81444,-2.67214 c -0.31803,0.1435 -0.75242,-0.0931 -1.18289,-0.32967 -0.0543,2.2027 0.87265,5.25904 -1.11332,7.04298 -2.88542,0.0194 -5.16599,-1.53963 -6.81822,-3.39366 -1.4699,1.10928 1.598,4.05315 -0.62436,5.07319 -3.31612,-0.21332 -0.41119,-3.72717 -2.57921,-4.9063 -3.31613,-0.21719 -8.51727,-3.05231 -9.66122,2.69934 -2.48606,-1.0354 -3.37046,1.98589 -4.8442,3.09517 0.50032,2.8196 2.28438,1.56282 3.61857,3.56031 l -1.20624,3.16875 c -5.47632,-9.67297 -15.8668,2.50548 -19.1557,-9.47909 -2.65283,0.78357 0.15902,6.4578 -4.02984,5.77131 -0.66698,-1.00064 -2.62952,-2.70717 -4.30114,-1.07045 l -1.58629,0.72911 c 0.2327,0.76413 0.58184,1.9082 1.3343,2.00125 -0.287,1.43499 -1.78808,1.25274 -2.74211,1.69112 -3.24236,-5.90694 -10.04154,0.26762 -14.72273,-3.24239 -3.33148,-4.99934 0.93091,-10.00272 -5.59267,-10.0491 -2.45126,0.2521 -3.13775,2.74576 -3.94059,4.85564 -3.53321,-4.47168 -5.62374,1.71816 -8.56749,3.93672 l 0.2327,0.76794 c -0.71751,1.19852 -3.08733,0.54302 -4.78986,0.89196 -1.24514,-2.90884 -2.54427,-3.61856 -5.16611,-1.53963 0.43039,0.23271 -0.0853,0.90756 0.031,1.29153 -5.56951,-0.4888 -11.55398,-4.70462 -17.63157,0.26761 -1.21784,-1.61728 -3.52161,0.31416 -4.13437,-2.88538 0.60508,-1.58629 2.73816,-1.69896 4.00642,-2.28061 l -1.97806,-6.48879 c -1.26826,0.58184 -1.93155,-0.41876 -3.11433,-0.74451 -0.34906,-1.14811 0.68649,-2.49386 -0.81456,-2.67614 l -1.58629,0.72911 c 0.54694,0.62044 -0.17065,1.81896 -0.91919,1.72972 -1.03555,1.34978 -2.65283,0.78733 -3.43625,-0.59725 l 0.80273,-2.10992 c -0.43427,-0.23659 -1.81888,-0.0349 -1.84999,-1.32636 -0.31803,0.14738 -1.26826,0.58565 -1.35358,1.49325 0.66721,1.00064 3.15327,2.03608 1.27993,4.20042 -3.78542,-1.74535 -7.53985,-2.19537 -10.72019,-5.52298 -3.48659,1.60569 -9.03679,-2.37362 -10.64627,1.84999 l 0.58565,1.90821 3.71941,-0.83775 c 1.96645,1.70652 2.72656,6.58183 0.5042,7.60187 -0.95031,0.43818 -1.6677,1.64051 -2.76919,0.40316 -0.93079,-3.05611 -5.139,-0.24822 -7.70651,-0.37621 -3.2657,-2.4162 -8.19131,1.59033 -12.09309,-0.53523 l 3.24631,-7.15185 c 0.43439,0.23659 -3.98702,-1.21368 -2.66454,-3.99873 l 0.40324,-1.05483 c -0.66697,-1.00064 -1.70252,0.34519 -2.45103,0.25598 l 0.46542,1.52827 c -6.0271,2.76919 -9.4519,-6.10486 -16.22746,-3.42492 0.22883,0.76414 1.12856,2.52892 -0.13962,3.11057 l -1.90045,0.87657 -1.83067,-4.82085 c -2.24176,4.51453 -5.88744,-0.33743 -8.79628,3.17278 -3.61473,-3.56078 -6.26768,-2.77345 -10.91788,-4.99178 l 0.39948,-1.05506 c -6.08531,0.18617 -11.92244,-2.35423 -18.52746,-1.49325 -5.69755,-5.6508 -15.12989,-2.18733 -20.19125,-8.12906 -3.89018,2.65674 -6.12026,-1.10548 -9.96001,-0.6479 -5.08453,-2.45104 -11.4918,-2.11749 -16.19641,-2.13312 -3.14924,11.03035 -4.31286,20.2689 -5.84873,31.85767 1.81889,0.0349 -0.0543,2.20316 0.17841,2.9633 1.26826,-0.58188 2.28438,1.56306 3.03292,1.65611 14.61014,2.85842 27.31603,6.59342 42.37998,6.20166 7.13634,3.24616 15.07556,4.38647 22.95276,2.94364 -0.23271,-0.7639 -0.031,-1.29157 0.17065,-1.81896 0.95022,-0.43819 2.33468,-0.63987 3.31612,0.21719 1.10149,1.23331 -1.2062,3.16095 1.04715,3.43225 0.71752,-1.19829 0.4537,-3.25399 2.27278,-3.21897 1.96634,1.70652 3.12996,5.52677 6.70199,3.01349 0.75242,0.0892 1.09745,1.23734 1.2138,1.61728 3.4791,-6.38772 7.53985,2.19536 8.3427,0.0853 -0.43439,-0.23658 -1.50097,-0.1784 -1.53196,-1.47381 2.07099,-2.69557 5.30578,-1.5709 7.8772,-1.44283 2.19521,2.47066 6.23657,1.48545 8.95142,3.28122 1.40792,-3.69241 5.57339,0.48857 6.66328,-3.06011 1.15175,-0.96585 2.21844,-1.02003 3.19965,-0.16677 -0.39948,1.05506 0.097,3.87466 1.68333,3.14555 3.62637,-4.71241 9.01356,5.86812 8.96314,-4.99155 1.56298,2.76519 4.90621,-0.51603 6.58563,2.63333 4.11497,-6.68244 7.29531,9.70395 8.50935,-1.73756 2.22236,-1.02003 3.0368,1.65235 4.13436,2.88566 l -0.40336,1.05886 c 0.55075,0.61667 1.50485,0.17841 2.13712,-0.11248 -0.98133,-0.85337 0.0543,-2.19916 0.13962,-3.11052 3.58374,2.27278 6.21338,4.9799 10.68521,4.2314 5.53849,-0.81075 9.78928,2.46263 15.49834,-0.16328 0.86878,0.47321 1.21392,1.61751 2.05167,0.79915 l -0.41108,-3.7272 c 2.45115,-0.25598 5.1041,-1.04346 7.78796,-0.53523 l 1.04715,3.43628 c 3.14935,2.03604 6.24828,-6.78731 7.70651,0.37621 2.65294,-0.78352 5.07307,-2.33479 7.67548,-0.91516 l 0.8882,-3.02152 c 3.99478,5.99999 9.82032,3.75843 15.59151,3.71561 5.96504,-5.35608 13.88079,-0.72132 19.17889,-7.07824 1.18305,0.32967 1.33039,2.00525 1.67945,3.14936 -1.90432,0.87277 2.19901,2.47066 2.7809,4.3789 l 3.43236,0.59724 c 0.31028,-4.92952 5.07676,-2.33103 6.88424,-7.08203 1.78797,-1.25678 3.60705,-1.22172 5.65872,-0.42279 -0.77573,3.40145 -2.50937,2.45883 -4.61146,3.86306 3.541,9.25375 10.92948,-3.28521 16.36321,0.31028 3.13387,-7.53229 6.7678,5.59635 9.7776,-2.31963 3.89387,-2.65675 2.35032,4.14619 6.12414,1.10548 3.84744,4.32445 10.83647,-7.15969 14.02453,0.95018 3.11053,-4.03752 9.02906,-2.40864 12.00384,-3.33943 -0.69808,-2.28814 -4.04132,0.98524 -3.81644,-3.03289 0.91919,-1.72971 3.05243,-1.83839 4.40977,-3.33544 2.16426,1.18293 -0.1086,4.4021 3.20749,4.61941 l -0.39948,1.05863 c 1.35358,-1.49701 1.93543,0.41522 3.11836,0.74071 4.93709,0.77953 11.83316,-1.52025 16.73949,-2.03604 7.28372,-8.1371 9.09489,4.95648 16.29727,-2.26898 6.00391,0.72531 12.23264,-2.57507 18.23654,-1.85402 0.53915,-4.16536 4.35168,-1.13248 5.42202,-1.18647 10.13055,-1.17152 20.5094,-5.07722 30.51971,-6.63225 l 1.2178,1.62108 c 2.42017,-1.5515 4.17711,-4.09577 7.14406,-5.03036 5.67815,9.14933 8.18352,-6.37232 14.11377,0.0427 19.41171,-6.31034 38.4511,-10.27401 58.2313,-18.93451 1.73352,0.94619 6.83774,-0.097 5.79451,-3.52952"
       id="path210"
       style="fill:#b5152b;fill-opacity:1;fill-rule:nonzero;stroke:none" />
  </g>
</svg>
